<svg width="271" height="271" viewBox="0 0 271 271" fill="none" xmlns="http://www.w3.org/2000/svg">
<path opacity="0.7" d="M37.3432 90.6177C37.3432 90.6177 22.3146 129.429 43.4344 168.51C64.5541 207.59 108.055 228.236 142.872 245.889C177.689 263.543 213.842 254.945 231.022 226.031C248.201 197.117 224.639 176.477 224.607 135.245C224.575 94.0137 230.779 83.098 208.436 48.265C186.092 13.4319 131.32 5.71822 89.9 31.5546C48.4798 57.391 37.3432 90.6177 37.3432 90.6177Z" fill="white"/>
<path d="M22.8967 151.12C20.3805 139.483 21.4692 127.355 26.0178 116.352C32.2438 100.957 45.6228 90.0193 60.6083 83.637C82.3911 74.3655 103.775 74.1876 121.477 56.011C126.938 50.405 131.52 43.985 137.109 38.4975C153.561 22.3262 177.64 24.2667 195.623 37.1067C233.129 63.8919 246.622 116.945 244.536 160.801C243.603 180.482 234.202 198.798 219.33 211.714C185.694 240.919 128.582 236.009 89.9592 220.759C61.1258 209.391 29.6617 182.87 22.8967 151.12Z" fill="#FB7210"/>
<path opacity="0.7" d="M22.8967 151.12C20.3805 139.483 21.4692 127.355 26.0178 116.352C32.2438 100.957 45.6228 90.0193 60.6083 83.637C82.3911 74.3655 103.775 74.1876 121.477 56.011C126.938 50.405 131.52 43.985 137.109 38.4975C153.561 22.3262 177.64 24.2667 195.623 37.1067C233.129 63.8919 246.622 116.945 244.536 160.801C243.603 180.482 234.202 198.798 219.33 211.714C185.694 240.919 128.582 236.009 89.9592 220.759C61.1258 209.391 29.6617 182.87 22.8967 151.12Z" fill="white"/>
<path d="M194.017 57.3911H192.13" stroke="#263238" stroke-linejoin="round"/>
<path d="M188.362 57.3911H69.6699" stroke="#263238" stroke-linejoin="round" stroke-dasharray="6.99 6.99"/>
<path d="M67.7831 57.3911H65.8965" stroke="#263238" stroke-linejoin="round"/>
<path d="M195.321 210.959V209.073" stroke="#263238" stroke-linejoin="round"/>
<path d="M195.321 205.267V62.4851" stroke="#263238" stroke-linejoin="round" stroke-dasharray="7.06 7.06"/>
<path d="M195.321 60.5822V58.6956" stroke="#263238" stroke-linejoin="round"/>
<path d="M196.626 56.0867H194.017V58.701H196.626V56.0867Z" stroke="#263238" stroke-linejoin="round"/>
<path d="M217.152 65.2017L198.178 57.2292L206.15 76.209L208.35 69.789L212.586 74.0259L214.969 71.6433L210.732 67.4064L217.152 65.2017Z" stroke="#263238" stroke-linecap="round" stroke-linejoin="round"/>
<path d="M180.577 232.451H161.851C161.183 232.43 160.543 232.181 160.037 231.746C159.531 231.31 159.19 230.714 159.069 230.058L156.983 216.98C156.922 216.685 156.928 216.38 157.002 216.088C157.076 215.796 157.215 215.524 157.409 215.294C157.603 215.063 157.847 214.88 158.123 214.757C158.398 214.635 158.698 214.577 158.999 214.587H177.731C178.398 214.608 179.038 214.857 179.544 215.293C180.05 215.728 180.392 216.324 180.512 216.98L182.599 230.058C182.659 230.353 182.652 230.658 182.577 230.951C182.503 231.243 182.363 231.514 182.168 231.745C181.974 231.975 181.729 232.158 181.454 232.281C181.178 232.403 180.879 232.461 180.577 232.451Z" stroke="#263238" stroke-linecap="round" stroke-linejoin="round"/>
<path d="M180.577 232.451C181.214 232.45 181.824 232.196 182.274 231.745C182.724 231.294 182.976 230.684 182.976 230.047V215.304C182.972 214.704 182.743 214.126 182.334 213.687C181.924 213.248 181.365 212.978 180.766 212.932L180.184 211.434C180.129 211.297 180.034 211.18 179.912 211.097C179.79 211.015 179.647 210.97 179.499 210.97H173.36C173.213 210.97 173.069 211.014 172.948 211.097C172.827 211.18 172.734 211.297 172.68 211.434L172.104 212.932H161.862C161.362 212.932 160.874 213.088 160.466 213.378C160.059 213.668 159.751 214.077 159.587 214.549" stroke="#263238" stroke-linecap="round" stroke-linejoin="round"/>
<path d="M110.151 232.451H91.414C90.7467 232.43 90.1067 232.181 89.6006 231.746C89.0945 231.31 88.7529 230.715 88.6325 230.058L86.5464 216.981C86.4859 216.685 86.4932 216.38 86.5677 216.088C86.6422 215.796 86.782 215.524 86.9766 215.294C87.1712 215.063 87.4155 214.88 87.6911 214.758C87.9667 214.635 88.2664 214.577 88.5678 214.587H107.294C107.962 214.607 108.602 214.856 109.109 215.292C109.615 215.727 109.956 216.324 110.076 216.981L112.162 230.058C112.222 230.352 112.215 230.657 112.141 230.948C112.067 231.239 111.928 231.51 111.735 231.74C111.542 231.971 111.299 232.154 111.024 232.277C110.75 232.4 110.452 232.46 110.151 232.451Z" stroke="#263238" stroke-linecap="round" stroke-linejoin="round"/>
<path d="M110.152 232.451C110.789 232.451 111.401 232.198 111.852 231.747C112.302 231.296 112.556 230.685 112.556 230.047V215.304C112.551 214.698 112.318 214.117 111.902 213.677C111.485 213.237 110.918 212.971 110.313 212.932L109.731 211.434C109.678 211.297 109.584 211.18 109.463 211.097C109.342 211.014 109.199 210.97 109.052 210.97H102.928C102.781 210.97 102.637 211.015 102.515 211.097C102.393 211.18 102.299 211.297 102.244 211.434L101.667 212.932H91.4252C90.9251 212.932 90.4374 213.088 90.0298 213.378C89.6222 213.668 89.3149 214.077 89.1504 214.549" stroke="#263238" stroke-linecap="round" stroke-linejoin="round"/>
<path d="M145.361 232.451H126.635C125.968 232.43 125.328 232.181 124.822 231.746C124.316 231.31 123.974 230.714 123.853 230.058L121.767 216.98C121.706 216.685 121.712 216.38 121.786 216.088C121.86 215.796 121.999 215.524 122.193 215.294C122.388 215.063 122.632 214.88 122.907 214.757C123.182 214.635 123.482 214.577 123.783 214.587H142.494C143.161 214.607 143.802 214.856 144.308 215.291C144.814 215.727 145.156 216.323 145.275 216.98L147.361 230.058C147.422 230.351 147.416 230.655 147.343 230.946C147.27 231.237 147.132 231.508 146.94 231.738C146.748 231.968 146.506 232.152 146.232 232.275C145.959 232.399 145.661 232.459 145.361 232.451Z" stroke="#263238" stroke-linecap="round" stroke-linejoin="round"/>
<path d="M145.361 232.451C145.998 232.45 146.608 232.196 147.058 231.745C147.508 231.294 147.76 230.684 147.76 230.047V215.304C147.759 214.699 147.529 214.117 147.116 213.675C146.703 213.233 146.137 212.964 145.534 212.922L144.946 211.423C144.893 211.286 144.8 211.169 144.679 211.086C144.557 211.003 144.414 210.959 144.267 210.959H138.144C137.997 210.959 137.854 211.003 137.732 211.086C137.611 211.169 137.518 211.286 137.464 211.423L136.888 212.932H126.646C126.146 212.932 125.658 213.087 125.25 213.377C124.842 213.667 124.535 214.077 124.371 214.55" stroke="#263238" stroke-linecap="round" stroke-linejoin="round"/>
<path d="M155.657 86.548L160.735 80.279C161.307 79.5723 161.713 78.7464 161.924 77.8621C162.135 76.9778 162.145 76.0575 161.954 75.1688L157.14 52.8362C156.96 52.0037 156.5 51.258 155.837 50.7235C155.174 50.1889 154.348 49.8977 153.496 49.8984H144.165C143.501 49.8979 142.842 50.0072 142.214 50.2219L51.9346 87.1733L74.8116 205.973C78.0459 210.825 168.282 179.609 168.282 179.609C169.72 179.127 170.927 178.125 171.664 176.8C172.401 175.474 172.616 173.921 172.265 172.445L153.814 94.693C153.479 93.2848 153.471 91.8184 153.79 90.4065C154.11 88.9946 154.748 87.6747 155.657 86.548Z" fill="#FB7210" stroke="#263238" stroke-linecap="round" stroke-linejoin="round"/>
<path opacity="0.3" d="M142.456 52.5234L171.025 174.984C171.025 174.984 74.4123 210.97 78.9619 199.833C78.9619 199.833 55.9716 90.4344 57.9122 90.0301C59.8527 89.6259 142.456 52.5234 142.456 52.5234Z" fill="black" fill-opacity="0.7"/>
<path d="M166.309 172.8L82.989 199.251L62.5916 92.9626L61.4326 86.9145L135.659 50.998C136.027 50.8409 136.424 50.7654 136.824 50.7765C137.224 50.7875 137.616 50.885 137.975 51.0622C138.333 51.2395 138.649 51.4922 138.901 51.803C139.152 52.1139 139.334 52.4755 139.432 52.8631L140.969 58.868L168.853 168.073C169.124 169.037 169.011 170.069 168.536 170.951C168.061 171.832 167.263 172.496 166.309 172.8Z" fill="white"/>
<mask id="mask0_758_1931" style="mask-type:luminance" maskUnits="userSpaceOnUse" x="61" y="50" width="108" height="150">
<path d="M166.309 172.8L82.989 199.251L62.5916 92.9626L61.4326 86.9145L135.659 50.998C136.027 50.8409 136.424 50.7654 136.824 50.7765C137.224 50.7875 137.616 50.885 137.975 51.0622C138.333 51.2395 138.649 51.4922 138.901 51.803C139.152 52.1139 139.334 52.4755 139.432 52.8631L140.969 58.868L168.853 168.073C169.124 169.037 169.011 170.069 168.536 170.951C168.061 171.832 167.263 172.496 166.309 172.8Z" fill="white"/>
</mask>
<g mask="url(#mask0_758_1931)">
<path d="M140.99 58.8682L63.1899 94.4775L61.4326 86.9309L135.659 51.0144C136.027 50.8573 136.424 50.7817 136.824 50.7928C137.224 50.8039 137.616 50.9014 137.975 51.0786C138.333 51.2558 138.649 51.5085 138.901 51.8194C139.152 52.1302 139.334 52.4919 139.432 52.8795L140.99 58.8682Z" fill="#263238"/>
<path d="M137.104 56.232C137.122 56.4686 137.092 56.7066 137.013 56.9307C136.935 57.1549 136.812 57.3604 136.65 57.5342C136.488 57.708 136.292 57.8464 136.074 57.9405C135.856 58.0346 135.621 58.0824 135.384 58.0809C134.889 58.0068 134.439 57.7522 134.12 57.366C133.802 56.9799 133.638 56.4895 133.659 55.9894C133.64 55.7522 133.67 55.5134 133.748 55.2885C133.826 55.0637 133.95 54.8576 134.113 54.6835C134.275 54.5094 134.472 54.3712 134.691 54.2777C134.91 54.1842 135.146 54.1375 135.384 54.1405C135.878 54.2158 136.327 54.471 136.644 54.857C136.962 55.243 137.125 55.7327 137.104 56.232Z" fill="#FB7210" stroke="#263238" stroke-linecap="round" stroke-linejoin="round"/>
<path d="M132.645 58.4315C132.659 58.6519 132.627 58.8727 132.551 59.0802C132.476 59.2878 132.359 59.4777 132.207 59.6383C132.056 59.7989 131.873 59.9267 131.67 60.014C131.468 60.1013 131.249 60.1461 131.028 60.1457C130.565 60.0817 130.143 59.8473 129.844 59.4884C129.545 59.1295 129.391 58.6719 129.411 58.2051C129.398 57.9847 129.43 57.764 129.505 57.5564C129.581 57.3489 129.698 57.159 129.849 56.9984C130.001 56.8378 130.183 56.7099 130.386 56.6227C130.589 56.5354 130.807 56.4906 131.028 56.491C131.491 56.5561 131.912 56.7908 132.211 57.1495C132.51 57.5081 132.665 57.9651 132.645 58.4315Z" fill="#FB7210" stroke="#263238" stroke-linecap="round" stroke-linejoin="round"/>
<path d="M128.447 60.3342C128.465 60.5412 128.441 60.75 128.374 60.9468C128.307 61.1436 128.199 61.3242 128.058 61.4767C127.916 61.6292 127.744 61.7503 127.553 61.832C127.362 61.9138 127.156 61.9544 126.948 61.9513C126.519 61.8877 126.129 61.6673 125.853 61.3328C125.577 60.9982 125.435 60.5733 125.455 60.1401C125.437 59.9337 125.462 59.7258 125.529 59.5297C125.596 59.3336 125.703 59.1537 125.844 59.0014C125.984 58.8492 126.155 58.728 126.345 58.6456C126.536 58.5632 126.741 58.5215 126.948 58.523C127.377 58.5865 127.768 58.8067 128.045 59.1411C128.321 59.4755 128.465 59.9005 128.447 60.3342Z" fill="#FB7210" stroke="#263238" stroke-linecap="round" stroke-linejoin="round"/>
<path opacity="0.3" d="M166.309 172.8L82.989 199.251L62.5916 92.9626L61.4326 86.9145L135.659 50.998C136.027 50.8409 136.424 50.7654 136.824 50.7765C137.224 50.7875 137.616 50.885 137.975 51.0622C138.333 51.2395 138.649 51.4922 138.901 51.803C139.152 52.1139 139.334 52.4755 139.432 52.8631L140.969 58.868L168.853 168.073C169.124 169.037 169.011 170.069 168.536 170.951C168.061 171.832 167.263 172.496 166.309 172.8Z" fill="black" fill-opacity="0.7"/>
</g>
<path d="M166.309 172.8L82.989 199.251L62.5916 92.9626L61.4326 86.9145L135.659 50.998C136.027 50.8409 136.424 50.7654 136.824 50.7765C137.224 50.7875 137.616 50.885 137.975 51.0622C138.333 51.2395 138.649 51.4922 138.901 51.803C139.152 52.1139 139.334 52.4755 139.432 52.8631L140.969 58.868L168.853 168.073C169.124 169.037 169.011 170.069 168.536 170.951C168.061 171.832 167.263 172.496 166.309 172.8Z" stroke="#263238" stroke-linecap="round" stroke-linejoin="round"/>
<path d="M161.361 167.561L79.1833 199.834L59.0607 94.9679L57.918 89.0061L131.142 47.9039C131.486 47.7106 131.87 47.5993 132.265 47.5787C132.659 47.5581 133.053 47.6288 133.415 47.7853C133.778 47.9418 134.099 48.1798 134.355 48.4809C134.61 48.7819 134.793 49.1379 134.888 49.5211L136.397 55.4182L163.889 162.688C164.129 163.669 164.006 164.703 163.541 165.6C163.076 166.496 162.301 167.193 161.361 167.561Z" fill="white" stroke="#263238" stroke-linecap="round" stroke-linejoin="round"/>
<path d="M136.397 55.3966L59.6483 96.4449L57.918 89.0061L131.142 47.9039C131.486 47.7106 131.87 47.5993 132.265 47.5787C132.659 47.5581 133.053 47.6288 133.415 47.7853C133.778 47.9418 134.099 48.1798 134.355 48.4809C134.61 48.7819 134.793 49.1379 134.888 49.5211L136.397 55.3966Z" fill="#263238"/>
<path d="M132.554 53.0356C132.506 53.3618 132.366 53.6675 132.15 53.9162C131.933 54.165 131.65 54.3462 131.334 54.4385C131.017 54.5308 130.681 54.5301 130.365 54.4366C130.049 54.3431 129.766 54.1607 129.551 53.9111C129.335 53.6616 129.196 53.3553 129.15 53.0289C129.104 52.7025 129.152 52.3697 129.29 52.0701C129.427 51.7706 129.648 51.5168 129.926 51.3392C130.203 51.1615 130.526 51.0674 130.856 51.0681C131.341 51.1067 131.791 51.3349 132.109 51.7032C132.427 52.0715 132.587 52.5502 132.554 53.0356Z" fill="#FB7210" stroke="#263238" stroke-linecap="round" stroke-linejoin="round"/>
<path d="M128.166 55.5312C128.126 55.8411 127.997 56.1328 127.796 56.3712C127.594 56.6096 127.327 56.7844 127.028 56.8745C126.729 56.9646 126.41 56.9662 126.11 56.879C125.81 56.7918 125.542 56.6197 125.338 56.3833C125.134 56.1469 125.002 55.8565 124.959 55.547C124.917 55.2376 124.965 54.9224 125.097 54.6396C125.23 54.3568 125.442 54.1184 125.707 53.9533C125.972 53.7882 126.279 53.7035 126.592 53.7093C127.041 53.7451 127.458 53.9564 127.752 54.2974C128.047 54.6384 128.195 55.0816 128.166 55.5312Z" fill="#FB7210" stroke="#263238" stroke-linecap="round" stroke-linejoin="round"/>
<path d="M124.026 57.7415C123.985 58.0246 123.863 58.2899 123.675 58.5058C123.488 58.7217 123.242 58.8791 122.967 58.9592C122.692 59.0394 122.4 59.0389 122.126 58.9579C121.852 58.8769 121.606 58.7188 121.419 58.5023C121.232 58.2858 121.111 58.0201 121.071 57.7369C121.03 57.4536 121.072 57.1647 121.191 56.9045C121.31 56.6443 121.501 56.4238 121.742 56.2693C121.983 56.1147 122.263 56.0326 122.549 56.0327C122.97 56.0685 123.36 56.2673 123.636 56.5865C123.912 56.9058 124.052 57.3203 124.026 57.7415Z" fill="#FB7210" stroke="#263238" stroke-linecap="round" stroke-linejoin="round"/>
<path opacity="0.3" d="M135.53 58.0488L159.743 152.818C159.791 153.006 159.77 153.205 159.685 153.38C159.601 153.554 159.457 153.693 159.28 153.772L157.07 154.748C156.962 154.795 156.846 154.819 156.728 154.817C156.611 154.815 156.495 154.787 156.39 154.736C156.284 154.685 156.191 154.611 156.116 154.52C156.042 154.429 155.988 154.323 155.959 154.209L132.403 59.9839C132.344 59.7468 132.365 59.4967 132.462 59.2725C132.56 59.0484 132.728 58.8626 132.942 58.7441L134.764 57.7199C134.835 57.6833 134.913 57.6629 134.992 57.66C135.072 57.6572 135.151 57.672 135.225 57.7034C135.298 57.7349 135.363 57.7822 135.416 57.8419C135.469 57.9016 135.507 57.9722 135.53 58.0488Z" fill="black" fill-opacity="0.7"/>
<path d="M133.454 60.7871L134.791 60.0486C134.919 59.9782 135.061 59.9381 135.207 59.9314C135.353 59.9247 135.499 59.9516 135.632 60.0099C135.766 60.0682 135.885 60.1564 135.979 60.2678C136.074 60.3792 136.141 60.5107 136.177 60.6523L138.651 70.5815C138.712 70.821 138.692 71.074 138.595 71.3011C138.497 71.5283 138.327 71.7168 138.112 71.8375L136.495 72.7C136.4 72.752 136.295 72.7812 136.188 72.7854C136.08 72.7896 135.973 72.7686 135.876 72.7241C135.778 72.6796 135.691 72.6128 135.624 72.5291C135.556 72.4453 135.509 72.3469 135.487 72.2418L132.932 61.9999C132.877 61.7684 132.899 61.5256 132.993 61.3073C133.087 61.089 133.249 60.9066 133.454 60.7871Z" fill="#BFBFBF" stroke="#263238" stroke-linecap="round" stroke-linejoin="round"/>
<path opacity="0.4" d="M145.54 166.893L92.5947 188.697" stroke="black" stroke-width="2" stroke-linecap="round" stroke-linejoin="round"/>
<path opacity="0.4" d="M152.698 160.246L85.4414 188.697" stroke="black" stroke-width="2" stroke-linecap="round" stroke-linejoin="round"/>
<path opacity="0.3" d="M146.089 131.639L140.661 108.557L125.956 115.586L131.33 138.587L146.089 131.639Z" fill="black" fill-opacity="0.7"/>
<path opacity="0.3" d="M119.956 89.944L125.066 111.797L139.755 104.687L134.489 82.2949L119.956 89.944Z" fill="black" fill-opacity="0.7"/>
<path opacity="0.3" d="M134.025 80.3167L129.723 62.0161L115.207 69.622L119.509 88.0196L134.025 80.3167Z" fill="black" fill-opacity="0.7"/>
<path opacity="0.3" d="M131.864 140.867L136.813 162.03L151.701 155.508L146.699 134.232L131.864 140.867Z" fill="black" fill-opacity="0.7"/>
<path d="M51.9346 87.1732L74.8116 205.973C82.1372 197.613 134.441 159.303 134.441 159.303C136.43 157.86 137.952 155.865 138.819 153.566C139.686 151.266 139.86 148.763 139.319 146.366L115.1 42.5134C114.893 41.6129 114.457 40.7814 113.832 40.1005C113.208 39.4197 112.417 38.9128 111.537 38.6296C110.658 38.3465 109.72 38.2967 108.816 38.4852C107.911 38.6737 107.071 39.0941 106.378 39.705C106.378 39.705 57.7239 70.2634 51.9346 87.1732Z" fill="#FB7210" stroke="#263238" stroke-linecap="round" stroke-linejoin="round"/>
<g opacity="0.7">
<path d="M135.174 150.063C134.83 150.063 134.496 149.947 134.226 149.734C133.956 149.521 133.766 149.223 133.686 148.888C133.269 147.192 132.863 145.492 132.468 143.789C132.408 143.588 132.39 143.378 132.415 143.17C132.44 142.962 132.507 142.762 132.612 142.581C132.717 142.4 132.858 142.242 133.026 142.118C133.194 141.993 133.386 141.904 133.59 141.857C133.793 141.809 134.005 141.803 134.211 141.84C134.417 141.877 134.613 141.955 134.787 142.07C134.962 142.186 135.111 142.335 135.226 142.51C135.34 142.686 135.418 142.882 135.454 143.088C135.853 144.786 136.252 146.479 136.661 148.166C136.71 148.362 136.719 148.565 136.688 148.764C136.658 148.964 136.588 149.155 136.483 149.327C136.379 149.499 136.241 149.649 136.078 149.768C135.915 149.887 135.731 149.973 135.535 150.02C135.416 150.048 135.295 150.062 135.174 150.063Z" fill="white"/>
</g>
<g opacity="0.7">
<path d="M132.042 136.415C131.695 136.415 131.358 136.297 131.087 136.081C130.815 135.864 130.626 135.562 130.549 135.224L109.564 43.1009C109.559 43.0704 109.546 43.0417 109.526 43.018C109.506 42.9943 109.48 42.9764 109.451 42.9662C109.424 42.9515 109.394 42.9439 109.364 42.9439C109.334 42.9439 109.304 42.9515 109.278 42.9662C103.888 46.5562 85.6625 58.7817 77.2103 65.5413C71.8199 70.0208 66.8984 75.1741 61.2384 82.214C60.984 82.5306 60.6141 82.7332 60.2102 82.7772C59.8064 82.8212 59.4016 82.7029 59.0849 82.4485C58.7683 82.194 58.5657 81.8241 58.5217 81.4203C58.4777 81.0164 58.596 80.6116 58.8505 80.295C64.6398 73.0826 69.7068 67.7999 75.2751 63.1642C83.6088 56.4962 100.643 45.0361 107.58 40.4165C108.018 40.1197 108.522 39.9348 109.047 39.8779C109.573 39.821 110.105 39.8939 110.596 40.0902C111.087 40.2865 111.522 40.6003 111.864 41.0039C112.206 41.4076 112.443 41.8888 112.555 42.4056L133.54 134.523C133.585 134.72 133.59 134.923 133.556 135.122C133.522 135.321 133.449 135.511 133.342 135.682C133.234 135.853 133.094 136 132.929 136.117C132.764 136.234 132.578 136.316 132.381 136.361C132.271 136.392 132.157 136.41 132.042 136.415Z" fill="white"/>
</g>
<path d="M70.9033 249.798C70.181 243.286 69.2053 234.241 68.359 225.621C67.13 213.035 66.1705 201.364 66.688 199.914C67.3903 198.077 67.713 196.117 67.6367 194.152C70.2025 193.872 71.3507 190.379 71.3507 190.379L69.9708 178.083C69.9708 178.083 70.8278 154.532 69.7767 147.848C68.7256 141.164 64.424 136.674 64.3377 134.911C64.2515 133.148 67.6852 125.305 68.8118 123.052C69.9384 120.799 69.2916 108.207 67.4696 104.266C67.0784 103.315 66.3433 102.545 65.4104 102.11C63.4915 101.253 61.3029 102.213 61.3029 102.213C61.0173 107.794 59.406 113.226 56.6025 118.061C54.8344 121.133 53.2011 123.117 52.9046 124.739C52.2739 128.211 44.6141 137.17 43.1641 141.805C41.7141 146.441 41.2505 162.192 38.9973 168.402C37.9192 171.324 34.0758 180.638 33.0678 209.04C32.5053 222.747 30.7832 236.381 27.9199 249.798H70.9033Z" fill="white"/>
<path opacity="0.4" d="M68.8118 123.036C67.6852 125.273 64.2515 133.1 64.3377 134.895C64.424 136.69 68.7148 141.159 69.7767 147.832C70.8386 154.505 69.9708 178.067 69.9708 178.067L71.3399 190.368C71.3399 190.368 70.1918 193.872 67.6259 194.141C67.7022 196.106 67.3795 198.067 66.6772 199.904C66.1381 201.375 67.1192 213.024 68.3482 225.611C67.0653 220.177 66.0088 215.983 66.0088 215.983C66.0088 215.983 65.4697 222.667 64.7205 227.945C63.9712 233.222 62.2516 240.725 62.2516 240.725C62.2516 240.725 58.3975 204.399 59.2923 198.33C60.1871 192.26 62.3972 193.257 60.6884 190.352C58.9796 187.446 48.6246 184.945 49.638 182.746C50.6514 180.547 58.7532 184.444 59.0928 184.6C58.8179 184.379 54.3115 180.773 54.3492 179.102C54.387 177.431 61.5778 181.797 61.5778 181.797C63.5 180.605 65.2486 179.154 66.7742 177.485C68.9681 174.962 65.6961 150.829 65.0924 149.088C64.4887 147.347 60.6237 147.595 59.4971 146.145C58.3705 144.695 61.4323 144.048 60.8447 141.832C60.2572 139.617 58.6886 139.816 58.6886 139.816C58.6886 139.816 61.2167 136.113 60.9903 132.884C60.7639 129.655 64.9576 125.763 64.6558 123.435C63.4807 114.368 58.0794 120.616 56.6132 118.044C59.4143 113.215 61.0256 107.788 61.3137 102.213C61.3137 102.213 63.5022 101.253 65.4212 102.11C66.354 102.545 67.0892 103.315 67.4804 104.266C69.2915 108.191 69.9438 120.793 68.8118 123.036Z" fill="#FB7210"/>
<path d="M29.6445 240.736C31.4877 230.259 32.6222 219.67 33.0405 209.04C34.0593 180.638 37.8919 171.307 38.97 168.402C41.2394 162.197 41.7137 146.43 43.1584 141.794C44.603 137.159 52.2682 128.2 52.8935 124.728C53.5188 121.257 60.3539 116.066 61.2918 102.212C61.2918 102.212 65.6311 100.31 67.4585 104.25C69.2858 108.19 69.9327 120.793 68.8007 123.036C67.6687 125.278 64.235 133.1 64.3266 134.895C64.4183 136.69 68.7037 141.158 69.7602 147.832C70.8167 154.505 69.9597 178.072 69.9597 178.072L71.3396 190.368C71.3396 190.368 70.1968 193.872 67.631 194.141C67.7083 196.104 67.3874 198.062 66.6877 199.898C65.8737 202.184 68.6174 228.904 70.461 245.647" stroke="#263238" stroke-linecap="round" stroke-linejoin="round"/>
<path d="M64.3326 134.879C64.3326 134.879 62.9796 138.652 60.3545 138.652" stroke="#263238" stroke-linecap="round" stroke-linejoin="round"/>
<path d="M63.4648 136.566C63.4648 136.566 64.2626 141.148 61.4326 144.064" stroke="#263238" stroke-linecap="round" stroke-linejoin="round"/>
<path d="M53.8691 122.475C53.8691 122.475 57.0495 121.85 59.044 123.052" stroke="#263238" stroke-linecap="round" stroke-linejoin="round"/>
<path d="M51.6592 183.543C51.6592 183.543 61.9927 186.778 63.626 188.433C65.2593 190.087 67.6365 194.152 67.6365 194.152" stroke="#263238" stroke-linecap="round" stroke-linejoin="round"/>
<path d="M59.7285 181.953C61.2486 183.662 64.6446 185.613 66.251 187.128C67.8573 188.643 68.6605 192.028 68.6605 192.028" stroke="#263238" stroke-linecap="round" stroke-linejoin="round"/>
<path d="M66.5156 181.156C66.5156 181.156 68.9036 179.975 70.1326 176.234" stroke="#263238" stroke-linecap="round" stroke-linejoin="round"/>
<path d="M63.729 194.923C61.465 196.066 61.4057 209.046 62.597 223.746" stroke="#263238" stroke-linecap="round" stroke-linejoin="round"/>
<path d="M64.9141 197.613C64.9141 199.046 66.86 210.011 67.7494 219.207" stroke="#263238" stroke-linecap="round" stroke-linejoin="round"/>
<path d="M156.461 109.258C156.461 109.258 152.235 116.977 152.278 118.723C152.321 120.47 160.363 132.588 160.579 133.962C160.795 135.337 166.611 137.989 168.735 139.396C170.859 140.803 173.543 130.604 173.193 123.262C172.842 115.92 156.461 109.258 156.461 109.258Z" fill="white"/>
<mask id="mask1_758_1931" style="mask-type:luminance" maskUnits="userSpaceOnUse" x="152" y="109" width="22" height="31">
<path d="M156.461 109.258C156.461 109.258 152.235 116.977 152.278 118.723C152.321 120.47 160.363 132.588 160.579 133.962C160.795 135.337 166.611 137.989 168.735 139.396C170.859 140.803 173.543 130.604 173.193 123.262C172.842 115.92 156.461 109.258 156.461 109.258Z" fill="white"/>
</mask>
<g mask="url(#mask1_758_1931)">
<path opacity="0.5" d="M156.461 109.258C156.461 109.258 152.235 116.977 152.278 118.723C152.321 120.47 160.363 132.588 160.579 133.962C160.795 135.337 166.611 137.989 168.735 139.396C170.859 140.803 173.543 130.604 173.193 123.262C172.842 115.92 156.461 109.258 156.461 109.258Z" fill="#FB7210"/>
</g>
<path d="M156.461 109.258C156.461 109.258 152.235 116.977 152.278 118.723C152.321 120.47 160.363 132.588 160.579 133.962C160.795 135.337 166.611 137.989 168.735 139.396C170.859 140.803 173.543 130.604 173.193 123.262C172.842 115.92 156.461 109.258 156.461 109.258Z" stroke="#263238" stroke-linecap="round" stroke-linejoin="round"/>
<path d="M159.35 123.602C159.35 123.602 163.5 121.715 168.017 126.744" stroke="#263238" stroke-linecap="round" stroke-linejoin="round"/>
<path d="M244.993 195.386L219.658 223.999C219.658 223.999 215.491 218.808 210.278 212.463C202.866 203.456 193.347 192.12 190.652 190.055C187.364 187.527 165.99 172.914 160.083 165.674C159.236 164.634 158.498 163.717 157.845 162.877C153.948 157.853 153.172 155.697 151.237 148.689C148.978 140.495 146.488 135.973 145.846 132.943C145.846 132.852 145.809 132.76 145.792 132.658C145.14 129.3 143.997 119.182 142.51 116.61C140.979 113.958 147.059 112.675 149.377 114.152C151.695 115.629 157.463 122.777 157.112 128.965C157.112 128.965 161.657 140.161 163.974 139.859C163.974 139.859 163.673 128.642 162.131 125.904C161.416 124.651 161.01 123.247 160.945 121.807C160.922 121.46 160.933 121.111 160.977 120.766C160.977 120.766 153.835 113.058 151.733 107.867C149.63 102.676 145.512 94.6875 144.725 86.9145C144.725 86.9145 143.798 81.3246 147.189 78.7911C148.477 77.8262 149.668 77.5513 150.87 79.2223C151.512 80.2003 152.018 81.2612 152.374 82.3757C157.447 96.6927 163.694 102.18 163.694 102.18C166.143 102.818 168.539 103.647 170.858 104.66C171.367 104.913 171.857 105.203 172.324 105.528C173.656 106.422 175.273 107.716 176.944 108.988C179.348 110.816 181.855 112.584 183.736 112.999C190.296 114.422 193.439 117.753 193.439 117.753C193.439 117.753 197.794 116.826 200.096 120.88C202.333 124.804 203.562 125.585 203.562 125.585C203.562 125.585 205.206 125.585 206.527 128.486C208.855 133.574 215.852 160.677 216.197 161.772C219.011 170.736 227.377 180.358 236.95 188.788C239.597 191.096 242.292 193.3 244.993 195.386Z" fill="white"/>
<path opacity="0.4" d="M179.402 116.519C179.402 116.519 171.823 115.155 170.33 111.716C168.837 108.277 162.492 100.935 160.972 100.461C160.548 100.318 160.093 100.297 159.657 100.4C159.222 100.502 158.824 100.725 158.509 101.043C158.509 101.043 155.878 96.8923 153.9 93.3076C152.024 89.9009 142.742 79.686 150.865 79.2224C151.507 80.2004 152.013 81.2613 152.369 82.3758C157.441 96.6928 163.689 102.18 163.689 102.18C166.138 102.818 168.533 103.647 170.853 104.66C171.362 104.914 171.852 105.204 172.319 105.528C172.125 105.479 169.085 104.725 169.694 106.277C170.303 107.829 175.246 112.357 177.844 114.32C180.442 116.282 179.402 116.519 179.402 116.519Z" fill="#FB7210"/>
<path opacity="0.4" d="M236.989 188.794C232.703 186.449 226.208 182.573 224.052 179.528C220.721 174.838 218.246 172.488 216.025 169.771C213.805 167.054 209.6 164.833 210.586 165.2C211.573 165.566 216.036 167.113 216.036 167.113C213.531 163.741 211.534 160.02 210.107 156.068C207.514 149.152 202.792 124.804 199.283 122.109C195.774 119.413 199.283 145.977 199.283 145.977C197.045 140.782 195.373 135.36 194.297 129.806C192.679 121.074 191.224 116.788 189.327 115.608C187.429 114.427 183.796 116.912 182.804 115.608C181.812 114.303 182.934 113.823 176.972 109.004C179.376 110.832 181.882 112.6 183.764 113.015C190.324 114.438 193.466 117.769 193.466 117.769C193.466 117.769 197.822 116.842 200.124 120.896C202.361 124.82 203.59 125.602 203.59 125.602C203.59 125.602 205.234 125.602 206.554 128.502C208.883 133.59 215.88 160.693 216.225 161.788C219.039 170.741 227.415 180.363 236.989 188.794Z" fill="#FB7210"/>
<path opacity="0.4" d="M166.471 145.013C166.19 146.63 164.153 141.854 163.97 142.592C163.786 143.331 163.231 145.767 163.199 145.013C163.166 144.258 158.843 141.854 158.099 138.269C157.356 134.685 156.865 133.159 156.482 132.259C156.1 131.359 155.453 132.857 155.404 130.685C155.366 128.739 149.103 126.691 145.766 132.658C145.114 129.3 143.971 119.182 142.483 116.61C140.952 113.958 147.033 112.675 149.351 114.152C151.669 115.629 157.436 122.777 157.086 128.965C157.086 128.965 161.63 140.161 163.948 139.859C163.948 139.859 163.646 128.642 162.105 125.904C161.39 124.651 160.983 123.247 160.919 121.807L163.177 122.114C163.786 123.451 162.595 125.348 163.177 126.319C163.759 127.289 167.414 134.307 166.201 137.946C164.988 141.584 166.751 143.396 166.471 145.013Z" fill="#FB7210"/>
<path opacity="0.4" d="M210.263 212.463C202.851 203.456 193.332 192.12 190.636 190.055C187.348 187.527 165.975 172.913 160.067 165.674C159.221 164.634 158.482 163.717 157.83 162.876C160.978 166.72 164.838 168.741 166.498 169.647C169.463 171.264 178.05 172.633 184.044 179.134C186.955 182.293 188.615 184.595 192.194 188.546C195.773 192.497 200.964 192.745 204.053 198.184C205.6 200.911 208.171 207.051 210.263 212.463Z" fill="#FB7210"/>
<path d="M219.642 223.999C219.642 223.999 195.223 193.575 190.636 190.039C187.348 187.516 165.975 172.898 160.067 165.658C154.159 158.419 153.48 156.872 151.221 148.684C148.963 140.496 146.478 135.973 145.831 132.938C145.184 129.903 144.025 119.257 142.494 116.611C140.963 113.964 147.044 112.675 149.361 114.147C151.679 115.619 157.447 122.772 157.097 128.965C157.097 128.965 161.641 140.161 163.959 139.859C163.959 139.859 163.657 128.642 162.115 125.904C161.203 124.356 160.801 122.561 160.967 120.772C160.967 120.772 153.814 113.058 151.728 107.867C149.642 102.676 145.507 94.6876 144.72 86.9146C144.72 86.9146 143.799 81.3301 147.189 78.7912C149.011 77.4274 150.628 77.4436 152.375 82.3758C157.453 96.6928 163.695 102.18 163.695 102.18C166.144 102.818 168.539 103.647 170.859 104.66C173.877 106.078 180.022 112.207 183.752 112.999C190.307 114.427 193.455 117.759 193.455 117.759C193.455 117.759 197.811 116.832 200.112 120.885C202.344 124.809 203.579 125.596 203.579 125.596C203.579 125.596 205.196 125.596 206.543 128.491C208.872 133.58 215.869 160.683 216.214 161.777C219.798 173.189 232.385 185.662 244.972 195.386" stroke="#263238" stroke-linecap="round" stroke-linejoin="round"/>
<path d="M163.711 102.18C163.711 102.18 169.915 110.773 174.26 112.422" stroke="#263238" stroke-linecap="round" stroke-linejoin="round"/>
<path d="M173.92 114.32C178.103 115.662 180.804 116.476 181.574 119.613C182.345 122.75 184.582 129.898 185.66 132.701C186.738 135.504 189.326 142.592 189.326 142.592" stroke="#263238" stroke-linecap="round" stroke-linejoin="round"/>
<path d="M163.97 139.859C163.97 139.859 166.816 143.563 166.126 147.19" stroke="#263238" stroke-linecap="round" stroke-linejoin="round"/>
<path d="M162.762 139.261C162.762 139.261 162.638 143.288 163.646 145.983" stroke="#263238" stroke-linecap="round" stroke-linejoin="round"/>
<path d="M160.978 120.756C160.978 120.756 163.263 121.985 163.808 123.451" stroke="#263238" stroke-linecap="round" stroke-linejoin="round"/>
<path d="M162.638 127.257C163.203 128.482 163.916 129.633 164.762 130.685C165.867 131.898 166.379 135.838 166.379 135.838" stroke="#263238" stroke-linecap="round" stroke-linejoin="round"/>
<path d="M145.842 132.938C145.842 132.938 148.305 130.167 150.85 129.79" stroke="#263238" stroke-linecap="round" stroke-linejoin="round"/>
<path d="M157.501 101.636C157.501 101.636 160.369 99.4796 162.541 100.973" stroke="#263238" stroke-linecap="round" stroke-linejoin="round"/>
<path d="M205.206 132.577C205.777 134.146 208.71 148.312 209.443 150.322" stroke="#263238" stroke-linecap="round" stroke-linejoin="round"/>
<path d="M185.154 116.341C185.154 116.341 187.85 114.411 191.224 116.778C194.598 119.144 194.604 120.287 196.684 119.732C197.31 119.59 197.962 119.622 198.571 119.826C199.179 120.029 199.72 120.395 200.134 120.885" stroke="#263238" stroke-linecap="round" stroke-linejoin="round"/>
<path d="M196.021 126.319C196.561 129.494 198.846 145.034 199.951 148.958" stroke="#263238" stroke-linecap="round" stroke-linejoin="round"/>
</svg>
