<svg width="20" height="21" viewBox="0 0 20 21" fill="none" xmlns="http://www.w3.org/2000/svg">
<path d="M19.8689 10.2857C19.8698 9.60425 19.8117 8.92401 19.6955 8.25244L10.1997 8.25244L10.1997 12.1036L15.6385 12.1036C15.5272 12.7187 15.2916 13.3051 14.946 13.8273C14.6004 14.3496 14.1518 14.7969 13.6274 15.1424L13.6274 17.6422L16.8733 17.6422C18.7739 15.9021 19.8689 13.3286 19.8689 10.2857Z" fill="#4285F4"/>
<path d="M10.1997 20.0576C12.9169 20.0576 15.2049 19.1716 16.8733 17.6439L13.6274 15.144C12.7239 15.7523 11.5604 16.0995 10.1997 16.0995C7.57328 16.0995 5.34408 14.3412 4.54693 11.9719L1.20312 11.9719L1.20312 14.5482C2.0412 16.2043 3.32629 17.5965 4.91494 18.5694C6.50358 19.5423 8.33324 20.0575 10.1997 20.0576Z" fill="#34A853"/>
<path d="M4.54686 11.9715C4.12543 10.7299 4.12543 9.38543 4.54686 8.14389L4.54686 5.56763L1.20305 5.56763C0.498032 6.96083 0.130859 8.49845 0.130859 10.0577C0.130859 11.6169 0.498032 13.1545 1.20305 14.5477L4.54686 11.9715Z" fill="#FBBC04"/>
<path d="M10.1997 4.01641C11.6356 3.99311 13.0231 4.5319 14.0623 5.51633L16.9362 2.66231C15.1139 0.9625 12.6996 0.029276 10.1997 0.0582732C8.33324 0.0583577 6.50358 0.573601 4.91494 1.54648C3.32629 2.51936 2.0412 3.91158 1.20312 5.56772L4.54693 8.14398C5.34408 5.77465 7.57328 4.01641 10.1997 4.01641Z" fill="#EA4335"/>
</svg>
