<svg width="48" height="49" viewBox="0 0 48 49" fill="none" xmlns="http://www.w3.org/2000/svg">
<path d="M-3.48849e-10 24.5C-1.56185e-10 11.2452 10.7452 0.5 24 0.5C37.2548 0.5 48 11.2452 48 24.5C48 37.7548 37.2548 48.5 24 48.5C10.7452 48.5 -5.41513e-10 37.7548 -3.48849e-10 24.5Z" fill="#2F4858"/>
<path fill-rule="evenodd" clip-rule="evenodd" d="M21.7071 31.2071C21.3166 31.5976 20.6834 31.5976 20.2929 31.2071L14.2929 25.2071C13.9024 24.8166 13.9024 24.1834 14.2929 23.7929L20.2929 17.7929C20.6834 17.4024 21.3166 17.4024 21.7071 17.7929C22.0976 18.1834 22.0976 18.8166 21.7071 19.2071L17.4142 23.5L33 23.5C33.5523 23.5 34 23.9477 34 24.5C34 25.0523 33.5523 25.5 33 25.5L17.4142 25.5L21.7071 29.7929C22.0976 30.1834 22.0976 30.8166 21.7071 31.2071Z" fill="white"/>
</svg>
