<svg width="49" height="48" viewBox="0 0 49 48" fill="none" xmlns="http://www.w3.org/2000/svg">
<rect x="0.712891" width="48" height="48" rx="24" fill="white"/>
<path fill-rule="evenodd" clip-rule="evenodd" d="M26.7197 18.9697C27.0126 18.6768 27.4874 18.6768 27.7803 18.9697L32.2803 23.4697C32.5732 23.7626 32.5732 24.2374 32.2803 24.5303L27.7803 29.0303C27.4874 29.3232 27.0126 29.3232 26.7197 29.0303C26.4268 28.7374 26.4268 28.2626 26.7197 27.9697L29.9393 24.75L18.25 24.75C17.8358 24.75 17.5 24.4142 17.5 24C17.5 23.5858 17.8358 23.25 18.25 23.25L29.9393 23.25L26.7197 20.0303C26.4268 19.7374 26.4268 19.2626 26.7197 18.9697Z" fill="#FB7210"/>
</svg>
